Ripper ...........:IMAGiNE                                  IMDB Rating.......:6.9/10                           
Video Codec.......:XVID                                     Release Date......:09/23/10
Audio Codec.......:MP3                                      Theatre Date......:07/09/10
Audio Bitrate.....:128                                      Runtime...........:1h 42mn
Subtitles.........:English                                  Language..........:ENGLISH
Resolution........:720 x 288                                IMDb URL..........:http://www.imdb.com/title/tt1424381/


DETAILS:

Video
Format                           : MPEG-4 Visual
Format profile                   : Streaming Video@L1
Format settings, BVOP            : Yes
Format settings, QPel            : No
Format settings, GMC             : No warppoints
Format settings, Matrix          : Default
Muxing mode                      : Packed bitstream
Codec ID                         : XVID
Codec ID/Hint                    : XviD
Duration                         : 1h 42mn
Bit rate                         : 1 716 Kbps
Width                            : 720 pixels
Height                           : 288 pixels
Display aspect ratio             : 2.500
Frame rate                       : 25.000 fps
Resolution                       : 24 bits
Colorimetry                      : 4:2:0
Scan type                        : Progressive
Bits/(Pixel*Frame)               : 0.331
Stream size                      : 1.23 GiB (93%)
Writing library                  : XviD 50

Audio
Format                           : MPEG Audio
Format version                   : Version 1
Format profile                   : Layer 3
Codec ID                         : 55
Codec ID/Hint                    : MP3
Duration                         : 1h 42mn
Bit rate mode                    : Constant
Bit rate                         : 128 Kbps
Channel(s)                       : 2 channels
Sampling rate                    : 44.1 KHz
Resolution                       : 16 bits
Stream size                      : 93.9 MiB (7%)
Alignment                        : Split accross interleaves
Interleave, duration             : 40 ms (1.00 video frame)
Interleave, preload duration     : 500 ms




SOURCES:

VIDEO: DVD9 R5 from a good mate TY bro... 
AUDIO: PrisM's TS V2 audio

NOTES:

IMAGiNE bringing you another release..... Predators 2010

Here's we go with a nice R5 of Predators for you...
First of thanks to our russian friend for the video and PriSM for the audio. Now the video
is pretty good so we only slightly adjusted the colors with an rgb filter, also adjusted the 
chroma and gamma as well because it's a fairly dark movie in certain spots.. The audio did 
not take to long to sync, so it turned out to be okay audio for now, but it would be nice 
to see some different audio pop up...  
[/code]
Screens:
[img]http://img535.imageshack.us/img535/5375/91122237.png[/img]
[img]http://img839.imageshack.us/img839/222/51568096.png[/img]
[img]http://img831.imageshack.us/img831/2771/10853842.png[/img]
[img]http://img801.imageshack.us/img801/119/79306195.png[/img]
[img]http://img7.imageshack.us/img7/7709/36970572.png[/img]
		